<svg id="Calque_1" data-name="Calque 1" xmlns="http://www.w3.org/2000/svg" xmlns:xlink="http://www.w3.org/1999/xlink" viewBox="0 0 515.48 171.31"><defs><style>.cls-1,.cls-2{fill:none;}.cls-2{stroke:#000;stroke-miterlimit:10;stroke-width:4px;}.cls-3{clip-path:url(#clip-path);}.cls-4{fill:url(#linear-gradient);}.cls-5{fill:url(#linear-gradient-2);}.cls-6{fill:url(#linear-gradient-3);}.cls-7{fill:url(#linear-gradient-4);}.cls-8{fill:#1d1d1b;}</style><clipPath id="clip-path"><path id="SVGID" class="cls-1" d="M112.84,75.65,89.78,62.33,45.3,36.64c-2.47-1.42-4.94-.56-4.94,2.42V143.71c0,2.24,1.76,3.2,3.91,2l45.51-26.28,23.06-13.31L135,93.28c2.6-1.5,2.35-3.56.16-4.74S112.84,75.65,112.84,75.65Z"/></clipPath><linearGradient id="linear-gradient" x1="68.93" y1="34.21" x2="68.93" y2="147.51" gradientUnits="userSpaceOnUse"><stop offset="0" stop-color="#2079b0"/><stop offset="0.32" stop-color="#4a98b5"/><stop offset="0.78" stop-color="#81bfbc"/><stop offset="1" stop-color="#97cfbf"/></linearGradient><linearGradient id="linear-gradient-2" x1="40.36" y1="62.33" x2="112.84" y2="62.33" gradientUnits="userSpaceOnUse"><stop offset="0" stop-color="#5abcab"/><stop offset="1" stop-color="#e6e99a"/></linearGradient><linearGradient id="linear-gradient-3" x1="76.6" y1="90.86" x2="76.6" y2="147.93" gradientUnits="userSpaceOnUse"><stop offset="0" stop-color="#e53432"/><stop offset="0.18" stop-color="#d43745"/><stop offset="0.73" stop-color="#a33e7c"/><stop offset="1" stop-color="#904192"/></linearGradient><linearGradient id="linear-gradient-4" x1="118.35" y1="75.65" x2="118.35" y2="106.08" gradientUnits="userSpaceOnUse"><stop offset="0" stop-color="#f18779"/><stop offset="0.64" stop-color="#f9b574"/><stop offset="1" stop-color="#fdcb72"/></linearGradient></defs><path class="cls-2" d="M513.48,146.7a22.61,22.61,0,0,1-22.61,22.61H24.61A22.61,22.61,0,0,1,2,146.7V24.61A22.61,22.61,0,0,1,24.61,2H490.87a22.61,22.61,0,0,1,22.61,22.61Z"/><g id="PLAY"><g class="cls-3"><polygon class="cls-4" points="40.37 34.21 40.37 90.86 40.37 147.51 97.5 90.86 40.37 34.21"/><polygon class="cls-5" points="112.84 75.65 89.78 62.33 40.37 33.8 40.37 34.21 97.5 90.86 112.84 75.65"/><polygon class="cls-6" points="40.37 147.51 40.37 147.93 89.78 119.39 112.84 106.08 97.5 90.86 40.37 147.51"/><polygon class="cls-7" points="112.84 75.65 97.5 90.86 112.84 106.08 139.2 90.86 112.84 75.65"/></g></g><path d="M400.06,113a14.11,14.11,0,0,1-5.88-1.19,11.06,11.06,0,0,1-4.46-3.65h-.37a42.59,42.59,0,0,1,.37,5.47V127.2h-5V79.46h4l.7,4.51h.24a11.47,11.47,0,0,1,4.48-3.91,13.6,13.6,0,0,1,5.86-1.2q6.56,0,10.12,4.48t3.56,12.56q0,8.13-3.62,12.62A12.23,12.23,0,0,1,400.06,113Zm-.72-29.91q-5.05,0-7.31,2.79c-1.5,1.87-2.27,4.83-2.31,8.9V95.9q0,7,2.31,9.94c1.55,2,4,3,7.43,3a7.74,7.74,0,0,0,6.69-3.45q2.42-3.47,2.42-9.54c0-4.1-.81-7.26-2.42-9.45A8,8,0,0,0,399.34,83.1Z"/><path d="M425.29,112.41h-5V65.63h5Z"/><path d="M454,112.41l-1-4.69h-.24a13.76,13.76,0,0,1-4.91,4.19,14.89,14.89,0,0,1-6.12,1.1q-4.91,0-7.68-2.52c-1.86-1.69-2.78-4.08-2.78-7.19q0-10,16-10.46l5.59-.18v-2c0-2.58-.55-4.49-1.67-5.72S448.25,83,445.81,83a21.74,21.74,0,0,0-9.32,2.52L435,81.74a23.71,23.71,0,0,1,5.34-2.07,23.18,23.18,0,0,1,5.82-.75q5.89,0,8.73,2.61c1.9,1.75,2.84,4.54,2.84,8.39v22.49Zm-11.28-3.52a10.13,10.13,0,0,0,7.32-2.55,9.45,9.45,0,0,0,2.66-7.16v-3l-5,.2c-4,.15-6.83.76-8.58,1.86a5.56,5.56,0,0,0-2.63,5.09,5.12,5.12,0,0,0,1.64,4.12A6.8,6.8,0,0,0,442.71,108.89Z"/><path d="M460.58,79.46h5.35l7.22,18.79a71.82,71.82,0,0,1,2.94,9.29h.24c.27-1,.81-2.77,1.64-5.25s3.56-10.08,8.16-22.83h5.36L477.33,117q-2.11,5.56-4.92,7.89a10.42,10.42,0,0,1-6.9,2.33,20.12,20.12,0,0,1-4.51-.51v-4a17.46,17.46,0,0,0,3.7.36q5.15,0,7.33-5.77l1.84-4.69Z"/><path d="M307.61,82.52a11.64,11.64,0,0,1,4.89,9.31c0,5.09-2.89,7.51-5.79,9.78-.9.9-1.93,1.86-1.93,3.38a3.78,3.78,0,0,0,1.79,3l2.49,1.93c3,2.55,5.78,4.9,5.78,9.65,0,6.48-6.27,13-18.12,13-10,0-14.82-4.76-14.82-9.86,0-2.48,1.24-6,5.31-8.41,4.27-2.62,10.06-3,13.16-3.17-1-1.24-2.07-2.55-2.07-4.68a6.26,6.26,0,0,1,.69-2.69c-.76.07-1.51.13-2.21.13-7.3,0-11.43-5.44-11.43-10.81a12.41,12.41,0,0,1,4.41-9.24c3.93-3.24,8.61-3.79,12.34-3.79h14.19l-4.41,2.48Zm-4.9,30.6a10.92,10.92,0,0,0-1.58-.07,27.47,27.47,0,0,0-7.24,1.11c-1.51.55-5.92,2.2-5.92,7.1s4.75,8.41,12.13,8.41c6.61,0,10.13-3.18,10.13-7.45C310.23,118.7,308,116.85,302.71,113.12Zm2-13.09a7,7,0,0,0,1.72-5c0-5-3-12.68-8.68-12.68a6.43,6.43,0,0,0-4.82,2.28,8,8,0,0,0-1.52,5.1c0,4.62,2.69,12.27,8.62,12.27A7,7,0,0,0,304.71,100Z"/><path d="M264.22,112a16.24,16.24,0,0,1-16.79-16.24c0-9,7.36-16.72,17.83-16.72A16.09,16.09,0,0,1,281.7,95.3C281.7,103.42,275.44,112,264.22,112Zm8.6-5.57a12.5,12.5,0,0,0,2.07-7.64c0-6.06-2.89-17.62-11.43-17.62a9.57,9.57,0,0,0-6.19,2.35c-2.68,2.4-3.17,5.43-3.17,8.39,0,6.81,3.38,18,11.71,18A8.78,8.78,0,0,0,272.82,106.45Z"/><path d="M226.93,112c-11,0-16.8-8.53-16.8-16.24,0-9,7.37-16.72,17.83-16.72A16.09,16.09,0,0,1,244.4,95.3C244.4,103.42,238.14,112,226.93,112Zm8.6-5.57a12.49,12.49,0,0,0,2.06-7.64c0-6.06-2.89-17.62-11.42-17.62A9.57,9.57,0,0,0,220,83.54c-2.69,2.4-3.17,5.43-3.17,8.39,0,6.81,3.37,18,11.7,18A8.81,8.81,0,0,0,235.53,106.45Z"/><path d="M204.88,110.94l-9.9,2.28a72.58,72.58,0,0,1-11.41,1.18c-19.09,0-26.36-14.05-26.36-25.05,0-13.42,10.31-25.86,27.95-25.86a39.9,39.9,0,0,1,10.59,1.45,27,27,0,0,1,9.13,4.29l-5.75,5.46-2.42.55,1.73-2.77c-2.35-2.28-6.64-6.5-14.8-6.5-10.93,0-19.16,8.31-19.16,20.41,0,13,9.41,25.25,24.48,25.25a20.63,20.63,0,0,0,8.79-1.73V98.77l-10.44.55,5.53-3h14.67l-1.8,1.73a1.59,1.59,0,0,0-.69,1.1c-.08.63-.14,2.64-.14,3.33Z"/><path d="M329.47,109c-2.28-.21-2.76-.62-2.76-3.32V66.47c0-.15,0-.3,0-.44.28-2.42,1-2.84,3.12-4.09H320l-5.19,2.5h5.29v42.71c0,1.38-.27,1.59-1.86,3.66h12.24L333,109.3C331.83,109.15,330.65,109.09,329.47,109Z"/><path d="M357.62,109.58c-.75.42-1.51.9-2.26,1.24a16,16,0,0,1-6.67,1.31,14.69,14.69,0,0,1-9.14-2.68c-4.87-3.44-7-9.35-7-14.5,0-10.65,8.66-15.87,15.73-15.87A13.32,13.32,0,0,1,355.36,81a11.32,11.32,0,0,1,4.8,6.79L344,94.33l-5.29.42c1.72,8.72,7.63,13.8,14.16,13.8a17.73,17.73,0,0,0,8.38-2.4Zm-6.45-20.47c1.3-.48,2-.89,2-1.85,0-2.75-3.09-5.91-6.8-5.91-2.76,0-7.9,2.13-7.9,9.55,0,1.16.13,2.4.2,3.64Z"/><path d="M364.26,79.55v4.53h-.56V79.55h-1.5v-.47h3.55v.47Z"/><path d="M370.44,84.08V79.51h0L369,84.08h-.43l-1.41-4.57h0v4.57h-.5v-5h.85l1.28,4h0l1.25-4h.87v5Z"/><path class="cls-8" d="M179.52,34.21l-2.6,2.57a7.67,7.67,0,0,0-5.75-2.61,6.57,6.57,0,0,0-4.8,1.9,6.2,6.2,0,0,0-1.93,4.61,6.41,6.41,0,0,0,2,4.76,6.83,6.83,0,0,0,4.95,2,6.14,6.14,0,0,0,3.23-.8,5.7,5.7,0,0,0,2.12-2.52h-5.62V40.6h9.76l0,.82a9.48,9.48,0,0,1-1.32,4.82,9.13,9.13,0,0,1-3.41,3.48,9.75,9.75,0,0,1-4.92,1.2,10.85,10.85,0,0,1-5.38-1.31,9.56,9.56,0,0,1-3.75-3.74,10.47,10.47,0,0,1-1.37-5.23,9.71,9.71,0,0,1,2.54-6.7,10,10,0,0,1,7.86-3.38,12.06,12.06,0,0,1,4.73.93A10.85,10.85,0,0,1,179.52,34.21Z"/><path class="cls-8" d="M184.58,31h10.58v3.61h-6.92v3.51h6.92v3.55h-6.92v5.1h6.92v3.63H184.58Z"/><path class="cls-8" d="M197,31h10.72v3.64h-3.53V50.44H200.4V34.68H197Z"/><path class="cls-8" d="M218,31h3.67v19.4H218Z"/><path class="cls-8" d="M224.22,31h10.72v3.64H231.4V50.44h-3.74V34.68h-3.44Z"/><path class="cls-8" d="M254.72,30.56a9.63,9.63,0,0,1,7.07,3,9.91,9.91,0,0,1,3,7.27A9.79,9.79,0,0,1,261.83,48a10.12,10.12,0,0,1-14.34-.08,10,10,0,0,1-2.89-7.17,10.1,10.1,0,0,1,1.34-5.11,10.13,10.13,0,0,1,8.78-5.06Zm0,3.61A6.07,6.07,0,0,0,250.15,36a6.52,6.52,0,0,0-1.83,4.76,6.21,6.21,0,0,0,2.31,5.09,6.32,6.32,0,0,0,4.11,1.46,6,6,0,0,0,4.48-1.9,6.84,6.84,0,0,0,0-9.36A6.06,6.06,0,0,0,254.68,34.17Z"/><path class="cls-8" d="M268.52,31h3.54l8.3,12.77V31h3.69v19.4H280.5l-8.29-12.73V50.44h-3.69Z"/></svg>