<?xml version="1.0" encoding="utf-8"?>
<!-- Generator: Adobe Illustrator 26.0.1, SVG Export Plug-In . SVG Version: 6.00 Build 0)  -->
<svg version="1.1" id="Calque_1" xmlns="http://www.w3.org/2000/svg" xmlns:xlink="http://www.w3.org/1999/xlink" x="0px" y="0px"
	 viewBox="0 0 164 42.1" style="enable-background:new 0 0 164 42.1;" xml:space="preserve" width="1em" height="1em">
<style type="text/css">
	.st0{fill:#085DA8;}
	.st1{fill:#FFE800;}
</style>
<path class="st0" d="M52.6,31.3h-0.1c-1.5,2.3-3.3,3.3-6.1,3.3c-5.1,0-9.7-4.2-9.7-11.1c0-7,4.4-11.1,9.7-11.1c2.6,0,4.6,1,6,2.9
	h0.1v-2.4h7.1v21.1h-7V31.3z M52.4,23.5c0-2.9-1.9-4.8-4.4-4.8c-2.5,0-4.4,1.9-4.4,4.8c0,2.8,1.9,4.8,4.4,4.8
	C50.6,28.3,52.4,26.3,52.4,23.5"/>
<path class="st0" d="M63.8,12.9h7v3.8h0.2c1.3-2.5,3.4-3.8,6.5-3.8v6.8c-4.2,0-6.5,1.4-6.5,6.5v7.9h-7.1V12.9z"/>
<path class="st0" d="M107.4,31.3h-0.1c-1.5,2.3-3.3,3.3-6.1,3.3c-5.1,0-9.7-4.2-9.7-11.1c0-7,4.4-11.1,9.7-11.1c2.6,0,4.6,1,6,2.9
	h0.1v-2.4h7.1v21.1h-7V31.3z M107.3,23.5c0-2.9-1.9-4.8-4.4-4.8c-2.5,0-4.4,1.9-4.4,4.8c0,2.8,1.9,4.8,4.4,4.8
	C105.5,28.3,107.3,26.3,107.3,23.5"/>
<path class="st0" d="M118.7,12.9h7v2.4h0.2c1.3-2,3.2-2.9,6.2-2.9c5.1,0,8.1,3.3,8.1,8.5v13.2H133V23.6c0-2.7-1-4.9-3.6-4.9
	c-2.4,0-3.7,1.9-3.7,5.3v10.1h-7.1V12.9z"/>
<path class="st0" d="M150.2,24.9c0.5,2.5,2,3.8,4.1,3.8c1.7,0,3.1-1,3.7-2.5l5.6,2.1c-0.9,3.2-4.3,6.4-9.5,6.4
	c-6.7,0-10.9-4.3-10.9-11.2c0-6.4,4.2-11.1,10.7-11.1c6.7,0,10.2,4.8,10.2,10.6c0,0.6,0,1.4-0.2,1.9H150.2z M150.2,21.2h6.8
	c-0.1-1.8-1.4-3.2-3.3-3.2C152,18,150.7,19.2,150.2,21.2"/>
<path class="st0" d="M80.9,7.6c0-2,1.6-3.7,3.7-3.7c2,0,3.7,1.7,3.7,3.7c0,2-1.6,3.7-3.7,3.7C82.5,11.3,80.9,9.7,80.9,7.6"/>
<path class="st0" d="M81,34.2c0,1.5,0,3.2-2.5,3.2h-0.9v4.7h1.7c7.8,0,8.8-3.3,8.8-8.1v-21H81V34.2z"/>
<path class="st1" d="M24.7,7.9c0,4.4-3.5,7.9-7.9,7.9c-4.4,0-7.9-3.5-7.9-7.9c0-4.4,3.5-7.9,7.9-7.9C21.2,0,24.7,3.5,24.7,7.9"/>
<path class="st0" d="M26.7,12.4c-1.7,3.8-5.5,6.4-9.9,6.4c-4.2,0-7.9-2.4-9.7-5.9H0v21.2h7.2V23.4c0-1.6,1.3-3,3-3s3,1.3,3,3l0,10.7
	h7.4V23.4c0-1.6,1.3-3,3-3c1.6,0,3,1.3,3,3l0,10.7h7.2V20.8C33.6,16.1,31.1,12.8,26.7,12.4"/>
</svg>
